<svg width="32" height="32" viewBox="0 0 32 32" fill="none" xmlns="http://www.w3.org/2000/svg">
  <!-- Favicon - Simplified nautilus icon -->
  <g transform="translate(6, 6)">
    <!-- Outer chamber -->
    <path d="M8 5 Q13 0, 16 4 Q17 7, 15 10 Q12 13, 8 12 Q5 10, 6 7 Q7 5, 8 5 Z"
          fill="#7BA3BE"/>

    <!-- Mid chamber -->
    <path d="M9 6 Q12 3, 14 6 Q15 8, 13 10 Q11 12, 9 10 Q7 8, 8 7 Q8.5 6, 9 6 Z"
          fill="#5B8299"/>

    <!-- Inner chamber -->
    <path d="M10 7 Q11 5, 13 7 Q13.5 8.5, 12 10 Q10.5 11, 9.5 9.5 Q9 8, 9.5 7.5 Q10 7, 10 7 Z"
          fill="#4A7085"/>

    <!-- Center -->
    <circle cx="11" cy="8.5" r="1.5" fill="#2D3A45"/>

    <!-- Tail -->
    <path d="M6 10 Q2 12, 0 15" stroke="#7BA3BE" stroke-width="1.5" fill="none" stroke-linecap="round"/>
  </g>
</svg>
